<svg xmlns="http://www.w3.org/2000/svg" viewBox="0 0 841.9 595.3">
  <g fill="#61DAFB">
    <path d="M666.3 296.5c0 52.4-21.4 100-56.2 135.1C575.3 466.5 527.8 488 475.5 488s-100-21.5-135.1-56.4c-35-35-56.4-82.7-56.4-135.1s21.4-100 56.4-135.1C375.4 122 423 100.5 475.3 100.5s100.1 21.5 135.1 56.4c35 35.1 56.4 82.7 56.4 135.1zm-118.8 0c0-45.1-18.4-87.5-48.4-117.7-30-30-72.6-48.3-117.6-48.3s-87.5 18.3-117.7 48.3c-30 30.1-48.3 72.6-48.3 117.7s18.3 87.5 48.3 117.7c30.2 30 72.7 48.3 117.7 48.3s87.5-18.3 117.6-48.3c30-30.2 48.4-72.6 48.4-117.7z"/>
  </g>
</svg>
